# 3ds Max Wavefront OBJ Exporter v0.97b - (c)2007 guruware
# File Created: 24.01.2015 17:52:02

mtllib cylindro.mtl

#
# object Cylinder001
#

v  0.0000 0.0000 -10.0000
v  3.8302 3.2139 -10.0000
v  4.6985 1.7101 -10.0000
v  5.0000 0.0000 -10.0000
v  0.8682 4.9240 -10.0000
v  2.5000 4.3301 -10.0000
v  -2.5000 4.3301 -10.0000
v  -0.8682 4.9240 -10.0000
v  -4.6985 1.7101 -10.0000
v  -3.8302 3.2139 -10.0000
v  -4.6985 -1.7101 -10.0000
v  -5.0000 0.0000 -10.0000
v  -2.5000 -4.3301 -10.0000
v  -3.8302 -3.2139 -10.0000
v  0.8682 -4.9240 -10.0000
v  -0.8682 -4.9240 -10.0000
v  3.8302 -3.2139 -10.0000
v  2.5000 -4.3301 -10.0000
v  4.6985 -1.7101 -10.0000
v  4.6985 1.7101 -6.0000
v  5.0000 -0.0000 -6.0000
v  3.8302 3.2139 -6.0000
v  2.5000 4.3301 -6.0000
v  0.8682 4.9240 -6.0000
v  -0.8682 4.9240 -6.0000
v  -2.5000 4.3301 -6.0000
v  -3.8302 3.2139 -6.0000
v  -4.6985 1.7101 -6.0000
v  -5.0000 0.0000 -6.0000
v  -4.6985 -1.7101 -6.0000
v  -3.8302 -3.2139 -6.0000
v  -2.5000 -4.3301 -6.0000
v  -0.8682 -4.9240 -6.0000
v  0.8682 -4.9240 -6.0000
v  2.5000 -4.3301 -6.0000
v  3.8302 -3.2139 -6.0000
v  4.6985 -1.7101 -6.0000
v  4.6985 1.7101 -2.0000
v  5.0000 -0.0000 -2.0000
v  3.8302 3.2139 -2.0000
v  2.5000 4.3301 -2.0000
v  0.8682 4.9240 -2.0000
v  -0.8682 4.9240 -2.0000
v  -2.5000 4.3301 -2.0000
v  -3.8302 3.2139 -2.0000
v  -4.6985 1.7101 -2.0000
v  -5.0000 0.0000 -2.0000
v  -4.6985 -1.7101 -2.0000
v  -3.8302 -3.2139 -2.0000
v  -2.5000 -4.3301 -2.0000
v  -0.8682 -4.9240 -2.0000
v  0.8682 -4.9240 -2.0000
v  2.5000 -4.3301 -2.0000
v  3.8302 -3.2139 -2.0000
v  4.6985 -1.7101 -2.0000
v  4.6985 1.7101 2.0000
v  5.0000 -0.0000 2.0000
v  3.8302 3.2139 2.0000
v  2.5000 4.3301 2.0000
v  0.8682 4.9240 2.0000
v  -0.8682 4.9240 2.0000
v  -2.5000 4.3301 2.0000
v  -3.8302 3.2139 2.0000
v  -4.6985 1.7101 2.0000
v  -5.0000 0.0000 2.0000
v  -4.6985 -1.7101 2.0000
v  -3.8302 -3.2139 2.0000
v  -2.5000 -4.3301 2.0000
v  -0.8682 -4.9240 2.0000
v  0.8682 -4.9240 2.0000
v  2.5000 -4.3301 2.0000
v  3.8302 -3.2139 2.0000
v  4.6985 -1.7101 2.0000
v  4.6985 1.7101 6.0000
v  5.0000 -0.0000 6.0000
v  3.8302 3.2139 6.0000
v  2.5000 4.3301 6.0000
v  0.8682 4.9240 6.0000
v  -0.8682 4.9240 6.0000
v  -2.5000 4.3301 6.0000
v  -3.8302 3.2139 6.0000
v  -4.6985 1.7101 6.0000
v  -5.0000 0.0000 6.0000
v  -4.6985 -1.7101 6.0000
v  -3.8302 -3.2139 6.0000
v  -2.5000 -4.3301 6.0000
v  -0.8682 -4.9240 6.0000
v  0.8682 -4.9240 6.0000
v  2.5000 -4.3301 6.0000
v  3.8302 -3.2139 6.0000
v  4.6985 -1.7101 6.0000
v  4.6985 1.7101 10.0000
v  5.0000 -0.0000 10.0000
v  3.8302 3.2139 10.0000
v  2.5000 4.3301 10.0000
v  0.8682 4.9240 10.0000
v  -0.8682 4.9240 10.0000
v  -2.5000 4.3301 10.0000
v  -3.8302 3.2139 10.0000
v  -4.6985 1.7101 10.0000
v  -5.0000 -0.0000 10.0000
v  -4.6985 -1.7101 10.0000
v  -3.8302 -3.2139 10.0000
v  -2.5000 -4.3301 10.0000
v  -0.8682 -4.9240 10.0000
v  0.8682 -4.9240 10.0000
v  2.5000 -4.3301 10.0000
v  3.8302 -3.2139 10.0000
v  4.6985 -1.7101 10.0000
v  0.0000 -0.0000 10.0000
# 110 vertices

vn 0.0000 0.0000 -1.0000
vn 1.0000 -0.0000 -0.0000
vn 0.9397 0.3420 0.0000
vn 0.7660 0.6428 0.0000
vn 0.5000 0.8660 0.0000
vn 0.1736 0.9848 0.0000
vn -0.1736 0.9848 0.0000
vn -0.5000 0.8660 0.0000
vn -0.7660 0.6428 0.0000
vn -0.9397 0.3420 0.0000
vn -1.0000 0.0000 0.0000
vn -0.9397 -0.3420 -0.0000
vn -0.7660 -0.6428 -0.0000
vn -0.5000 -0.8660 -0.0000
vn -0.1736 -0.9848 -0.0000
vn 0.1736 -0.9848 -0.0000
vn 0.5000 -0.8660 -0.0000
vn 0.7660 -0.6428 -0.0000
vn 0.9397 -0.3420 -0.0000
vn 0.0000 -0.0000 1.0000
# 20 vertex normals

vt 0.3255 0.8367 0.0000
vt 0.4183 0.7418 1.0000
vt 0.4452 0.7792 1.0000
vt 0.4576 0.8237 1.0000
vt 0.3356 0.7043 1.0000
vt 0.3803 0.7157 1.0000
vt 0.2481 0.7288 1.0000
vt 0.2897 0.7088 1.0000
vt 0.1968 0.8037 1.0000
vt 0.2159 0.7617 1.0000
vt 0.2057 0.8941 1.0000
vt 0.1933 0.8497 1.0000
vt 0.2707 0.9576 1.0000
vt 0.2326 0.9316 1.0000
vt 0.3612 0.9646 1.0000
vt 0.3153 0.9691 1.0000
vt 0.4351 0.9116 1.0000
vt 0.4028 0.9446 1.0000
vt 0.4541 0.8696 1.0000
vt 0.6610 0.0417 1.0000
vt 0.6967 0.0417 1.0000
vt 0.6967 0.1699 1.0000
vt 0.6610 0.1699 1.0000
vt 0.7323 0.0417 1.0000
vt 0.7323 0.1699 1.0000
vt 0.7679 0.0417 1.0000
vt 0.7679 0.1699 1.0000
vt 0.8036 0.0417 1.0000
vt 0.8036 0.1699 1.0000
vt 0.1621 0.0417 1.0000
vt 0.1977 0.0417 1.0000
vt 0.1977 0.1699 1.0000
vt 0.1621 0.1699 1.0000
vt 0.2334 0.0417 1.0000
vt 0.2334 0.1699 1.0000
vt 0.2690 0.0417 1.0000
vt 0.2690 0.1699 1.0000
vt 0.3047 0.0417 1.0000
vt 0.3047 0.1699 1.0000
vt 0.3403 0.0417 1.0000
vt 0.3403 0.1699 1.0000
vt 0.3759 0.0417 1.0000
vt 0.3759 0.1699 1.0000
vt 0.4116 0.0417 1.0000
vt 0.4116 0.1699 1.0000
vt 0.4472 0.0417 1.0000
vt 0.4472 0.1699 1.0000
vt 0.4828 0.0417 1.0000
vt 0.4828 0.1699 1.0000
vt 0.5185 0.0417 1.0000
vt 0.5185 0.1699 1.0000
vt 0.5541 0.0417 1.0000
vt 0.5541 0.1699 1.0000
vt 0.5897 0.0417 1.0000
vt 0.5897 0.1699 1.0000
vt 0.6254 0.0417 1.0000
vt 0.6254 0.1699 1.0000
vt 0.6967 0.2982 1.0000
vt 0.6610 0.2982 1.0000
vt 0.7323 0.2982 1.0000
vt 0.7679 0.2982 1.0000
vt 0.8036 0.2982 1.0000
vt 0.1977 0.2982 1.0000
vt 0.1621 0.2982 1.0000
vt 0.2334 0.2982 1.0000
vt 0.2690 0.2982 1.0000
vt 0.3047 0.2982 1.0000
vt 0.3403 0.2982 1.0000
vt 0.3759 0.2982 1.0000
vt 0.4116 0.2982 1.0000
vt 0.4472 0.2982 1.0000
vt 0.4828 0.2982 1.0000
vt 0.5185 0.2982 1.0000
vt 0.5541 0.2982 1.0000
vt 0.5897 0.2982 1.0000
vt 0.6254 0.2982 1.0000
vt 0.6967 0.4265 1.0000
vt 0.6610 0.4265 1.0000
vt 0.7323 0.4265 1.0000
vt 0.7679 0.4265 1.0000
vt 0.8036 0.4265 1.0000
vt 0.1977 0.4265 1.0000
vt 0.1621 0.4265 1.0000
vt 0.2334 0.4265 1.0000
vt 0.2690 0.4265 1.0000
vt 0.3047 0.4265 1.0000
vt 0.3403 0.4265 1.0000
vt 0.3759 0.4265 1.0000
vt 0.4116 0.4265 1.0000
vt 0.4472 0.4265 1.0000
vt 0.4828 0.4265 1.0000
vt 0.5185 0.4265 1.0000
vt 0.5541 0.4265 1.0000
vt 0.5897 0.4265 1.0000
vt 0.6254 0.4265 1.0000
vt 0.6967 0.5548 1.0000
vt 0.6610 0.5548 1.0000
vt 0.7323 0.5548 1.0000
vt 0.7679 0.5548 1.0000
vt 0.8036 0.5548 1.0000
vt 0.1977 0.5548 1.0000
vt 0.1621 0.5548 1.0000
vt 0.2334 0.5548 1.0000
vt 0.2690 0.5548 1.0000
vt 0.3047 0.5548 1.0000
vt 0.3403 0.5548 1.0000
vt 0.3759 0.5548 1.0000
vt 0.4116 0.5548 1.0000
vt 0.4472 0.5548 1.0000
vt 0.4828 0.5548 1.0000
vt 0.5185 0.5548 1.0000
vt 0.5541 0.5548 1.0000
vt 0.5897 0.5548 1.0000
vt 0.6254 0.5548 1.0000
vt 0.6967 0.6831 1.0000
vt 0.6610 0.6831 1.0000
vt 0.7323 0.6831 1.0000
vt 0.7679 0.6831 1.0000
vt 0.8036 0.6831 1.0000
vt 0.1977 0.6831 1.0000
vt 0.1621 0.6831 1.0000
vt 0.2334 0.6831 1.0000
vt 0.2690 0.6831 1.0000
vt 0.3047 0.6831 1.0000
vt 0.3403 0.6831 1.0000
vt 0.3759 0.6831 1.0000
vt 0.4116 0.6831 1.0000
vt 0.4472 0.6831 1.0000
vt 0.4828 0.6831 1.0000
vt 0.5185 0.6831 1.0000
vt 0.5541 0.6831 1.0000
vt 0.5897 0.6831 1.0000
vt 0.6254 0.6831 1.0000
vt 0.6904 0.8393 0.0000
vt 0.8178 0.8019 1.0000
vt 0.8229 0.8477 1.0000
vt 0.8120 0.8925 1.0000
vt 0.7865 0.9308 1.0000
vt 0.7494 0.9582 1.0000
vt 0.7052 0.9711 1.0000
vt 0.6592 0.9682 1.0000
vt 0.6169 0.9497 1.0000
vt 0.5836 0.9179 1.0000
vt 0.5631 0.8767 1.0000
vt 0.5580 0.8309 1.0000
vt 0.5689 0.7861 1.0000
vt 0.5944 0.7477 1.0000
vt 0.6315 0.7204 1.0000
vt 0.6757 0.7074 1.0000
vt 0.7217 0.7103 1.0000
vt 0.7639 0.7288 1.0000
vt 0.7973 0.7606 1.0000
# 152 texture coords

g Cylinder001
usemtl wire_169000169
s 1
f 1/1/1 2/2/1 3/3/1 4/4/1 
f 1/1/1 5/5/1 6/6/1 2/2/1 
f 1/1/1 7/7/1 8/8/1 5/5/1 
f 1/1/1 9/9/1 10/10/1 7/7/1 
f 1/1/1 11/11/1 12/12/1 9/9/1 
f 1/1/1 13/13/1 14/14/1 11/11/1 
f 1/1/1 15/15/1 16/16/1 13/13/1 
f 1/1/1 17/17/1 18/18/1 15/15/1 
f 1/1/1 4/4/1 19/19/1 17/17/1 
s 8
f 4/20/2 3/21/3 20/22/3 21/23/2 
f 3/21/3 2/24/4 22/25/4 20/22/3 
f 2/24/4 6/26/5 23/27/5 22/25/4 
f 6/26/5 5/28/6 24/29/6 23/27/5 
f 5/30/6 8/31/7 25/32/7 24/33/6 
f 8/31/7 7/34/8 26/35/8 25/32/7 
f 7/34/8 10/36/9 27/37/9 26/35/8 
f 10/36/9 9/38/10 28/39/10 27/37/9 
f 9/38/10 12/40/11 29/41/11 28/39/10 
f 12/40/11 11/42/12 30/43/12 29/41/11 
f 11/42/12 14/44/13 31/45/13 30/43/12 
f 14/44/13 13/46/14 32/47/14 31/45/13 
f 13/46/14 16/48/15 33/49/15 32/47/14 
f 16/48/15 15/50/16 34/51/16 33/49/15 
f 15/50/16 18/52/17 35/53/17 34/51/16 
f 18/52/17 17/54/18 36/55/18 35/53/17 
f 17/54/18 19/56/19 37/57/19 36/55/18 
f 19/56/19 4/20/2 21/23/2 37/57/19 
f 21/23/2 20/22/3 38/58/3 39/59/2 
f 20/22/3 22/25/4 40/60/4 38/58/3 
f 22/25/4 23/27/5 41/61/5 40/60/4 
f 23/27/5 24/29/6 42/62/6 41/61/5 
f 24/33/6 25/32/7 43/63/7 42/64/6 
f 25/32/7 26/35/8 44/65/8 43/63/7 
f 26/35/8 27/37/9 45/66/9 44/65/8 
f 27/37/9 28/39/10 46/67/10 45/66/9 
f 28/39/10 29/41/11 47/68/11 46/67/10 
f 29/41/11 30/43/12 48/69/12 47/68/11 
f 30/43/12 31/45/13 49/70/13 48/69/12 
f 31/45/13 32/47/14 50/71/14 49/70/13 
f 32/47/14 33/49/15 51/72/15 50/71/14 
f 33/49/15 34/51/16 52/73/16 51/72/15 
f 34/51/16 35/53/17 53/74/17 52/73/16 
f 35/53/17 36/55/18 54/75/18 53/74/17 
f 36/55/18 37/57/19 55/76/19 54/75/18 
f 37/57/19 21/23/2 39/59/2 55/76/19 
f 39/59/2 38/58/3 56/77/3 57/78/2 
f 38/58/3 40/60/4 58/79/4 56/77/3 
f 40/60/4 41/61/5 59/80/5 58/79/4 
f 41/61/5 42/62/6 60/81/6 59/80/5 
f 42/64/6 43/63/7 61/82/7 60/83/6 
f 43/63/7 44/65/8 62/84/8 61/82/7 
f 44/65/8 45/66/9 63/85/9 62/84/8 
f 45/66/9 46/67/10 64/86/10 63/85/9 
f 46/67/10 47/68/11 65/87/11 64/86/10 
f 47/68/11 48/69/12 66/88/12 65/87/11 
f 48/69/12 49/70/13 67/89/13 66/88/12 
f 49/70/13 50/71/14 68/90/14 67/89/13 
f 50/71/14 51/72/15 69/91/15 68/90/14 
f 51/72/15 52/73/16 70/92/16 69/91/15 
f 52/73/16 53/74/17 71/93/17 70/92/16 
f 53/74/17 54/75/18 72/94/18 71/93/17 
f 54/75/18 55/76/19 73/95/19 72/94/18 
f 55/76/19 39/59/2 57/78/2 73/95/19 
f 57/78/2 56/77/3 74/96/3 75/97/2 
f 56/77/3 58/79/4 76/98/4 74/96/3 
f 58/79/4 59/80/5 77/99/5 76/98/4 
f 59/80/5 60/81/6 78/100/6 77/99/5 
f 60/83/6 61/82/7 79/101/7 78/102/6 
f 61/82/7 62/84/8 80/103/8 79/101/7 
f 62/84/8 63/85/9 81/104/9 80/103/8 
f 63/85/9 64/86/10 82/105/10 81/104/9 
f 64/86/10 65/87/11 83/106/11 82/105/10 
f 65/87/11 66/88/12 84/107/12 83/106/11 
f 66/88/12 67/89/13 85/108/13 84/107/12 
f 67/89/13 68/90/14 86/109/14 85/108/13 
f 68/90/14 69/91/15 87/110/15 86/109/14 
f 69/91/15 70/92/16 88/111/16 87/110/15 
f 70/92/16 71/93/17 89/112/17 88/111/16 
f 71/93/17 72/94/18 90/113/18 89/112/17 
f 72/94/18 73/95/19 91/114/19 90/113/18 
f 73/95/19 57/78/2 75/97/2 91/114/19 
f 75/97/2 74/96/3 92/115/3 93/116/2 
f 74/96/3 76/98/4 94/117/4 92/115/3 
f 76/98/4 77/99/5 95/118/5 94/117/4 
f 77/99/5 78/100/6 96/119/6 95/118/5 
f 78/102/6 79/101/7 97/120/7 96/121/6 
f 79/101/7 80/103/8 98/122/8 97/120/7 
f 80/103/8 81/104/9 99/123/9 98/122/8 
f 81/104/9 82/105/10 100/124/10 99/123/9 
f 82/105/10 83/106/11 101/125/11 100/124/10 
f 83/106/11 84/107/12 102/126/12 101/125/11 
f 84/107/12 85/108/13 103/127/13 102/126/12 
f 85/108/13 86/109/14 104/128/14 103/127/13 
f 86/109/14 87/110/15 105/129/15 104/128/14 
f 87/110/15 88/111/16 106/130/16 105/129/15 
f 88/111/16 89/112/17 107/131/17 106/130/16 
f 89/112/17 90/113/18 108/132/18 107/131/17 
f 90/113/18 91/114/19 109/133/19 108/132/18 
f 91/114/19 75/97/2 93/116/2 109/133/19 
s 1
f 110/134/20 109/135/20 93/136/20 92/137/20 
f 110/134/20 92/137/20 94/138/20 95/139/20 
f 110/134/20 95/139/20 96/140/20 97/141/20 
f 110/134/20 97/141/20 98/142/20 99/143/20 
f 110/134/20 99/143/20 100/144/20 101/145/20 
f 110/134/20 101/145/20 102/146/20 103/147/20 
f 110/134/20 103/147/20 104/148/20 105/149/20 
f 110/134/20 105/149/20 106/150/20 107/151/20 
f 110/134/20 107/151/20 108/152/20 109/135/20 
# 108 polygons

